<?xml version="1.0" encoding="UTF-8" standalone="no"?>
<!-- Created with Inkscape (http://www.inkscape.org/) -->

<svg
   width="300mm"
   height="300mm"
   viewBox="0 0 300 300"
   version="1.1"
   id="svg1"
   xml:space="preserve"
   xmlns="http://www.w3.org/2000/svg"
   xmlns:svg="http://www.w3.org/2000/svg"><defs
     id="defs1" /><g
     id="g262157"
     transform="matrix(3.987377,0,0,3.987377,-855.66143,-448.66085)"><circle
       style="fill:#4d4d4d;stroke-width:2.26915"
       id="path1"
       cx="252.55775"
       cy="147.85355"
       r="27.098848" /><path
       style="fill:#13758d;stroke-width:0.974929"
       d="m 248.46077,180.96061 c -11.20139,-2.25018 -19.52641,-10.01377 -23.1178,-21.55874 -0.92445,-2.97178 -1.25475,-3.48656 -1.88365,-2.93567 -0.5686,0.49808 -0.35672,4.2731 0.35975,6.40982 0.28103,0.83808 0.44672,1.52379 0.3682,1.52379 -0.0785,0 -0.0169,0.16005 0.13689,0.35565 0.1538,0.19561 0.2053,0.43411 0.11444,0.53001 -0.0908,0.0959 -0.0267,0.17438 0.14252,0.17438 0.16927,0 0.24077,0.11439 0.15889,0.25423 -0.0819,0.13982 -0.0381,0.46777 0.0973,0.72877 0.13541,0.26099 0.43701,1.13044 0.67023,1.93208 0.23321,0.80165 0.58367,1.81531 0.77878,2.25257 0.299,0.67004 0.29961,0.72277 0.004,0.33538 -0.19296,-0.25281 -0.4244,-0.40188 -0.51431,-0.33127 -0.09,0.0706 -0.11642,0.0588 -0.0588,-0.0262 0.0575,-0.085 -0.0943,-0.36451 -0.33736,-0.62108 -4.76572,-5.03008 -6.23403,-19.79839 -2.78631,-28.02487 0.26656,-0.636 0.48243,-1.22437 0.47972,-1.30749 -0.003,-0.0831 0.18935,-0.30105 0.42679,-0.4843 0.26885,-0.20749 0.35523,-0.46376 0.22901,-0.67933 -0.14326,-0.24467 -0.1052,-0.28256 0.12985,-0.12924 0.24097,0.15719 0.28871,0.0964 0.17336,-0.22088 -0.0875,-0.24079 -0.0536,-0.40942 0.0755,-0.37473 0.12901,0.0346 0.8876,-0.84558 1.68576,-1.95615 1.38926,-1.93303 3.60692,-4.20847 4.10163,-4.20847 0.14332,0 0.22052,6.39084 0.19836,16.42198 0.98868,7.15652 -4.94625,12.23852 4.78473,17.08337 0.9808,0.48832 1.45472,-0.2807 1.47751,-0.60734 0.0167,-0.23899 0.0378,-2.75998 0.0469,-5.60218 0.0185,-5.77783 0.29383,-8.22085 0.6122,-5.43267 0.25082,2.19654 1.91319,7.49846 2.6836,8.55894 0.24321,0.3348 0.5155,0.96088 0.60506,1.3913 0.0896,0.43042 0.26685,0.78258 0.39397,0.78258 0.12714,0 0.23114,0.15809 0.23114,0.35132 0,2.55552 14.44123,3.76951 18.48928,1.55428 0.25701,-0.14064 1.37116,-0.72963 2.47591,-1.30888 2.51221,-1.3172 4.83149,-3.00365 6.77917,-4.9294 0.82856,-0.81925 1.6397,-1.49132 1.80251,-1.49352 0.37159,-0.005 -9.0031,8.22924 -8.84382,10.07733 0.14736,1.71009 11.17749,-2.94281 12.64711,-2.89793 1.81763,0.0555 1.92455,0.0907 1.92559,0.63436 5.7e-4,0.29151 -0.12526,0.53001 -0.2796,0.53001 -0.15434,0 -0.73452,0.47701 -1.28929,1.06004 -2.7656,2.90645 -8.10168,5.24028 -13.59257,5.94494 -4.87905,0.62614 -3.91129,2.36091 1.16142,2.08191 1.13743,-0.0626 2.03217,-0.0758 1.9883,-0.0295 -0.51993,0.54877 -4.46957,1.17104 -7.44848,1.17352 -7.91895,0.007 -14.54676,-2.80098 -21.3393,-9.0394 -3.77742,-3.46929 -4.11371,-1.32445 -0.43887,2.7991 4.77541,5.35852 11.95111,8.30308 21.40407,8.78319 4.47512,0.22728 3.46412,0.57784 -2.13418,0.74 -2.72914,0.079 -4.45429,-2.9e-4 -5.77484,-0.26556 z m 29.93048,-18.4675 c -0.28587,-0.77324 -0.59923,-1.70403 -0.69632,-2.06841 -0.0971,-0.36439 -0.24603,-0.72215 -0.331,-0.79503 -0.1947,-0.16701 -1.28445,-3.46891 -1.28438,-3.89161 2e-5,-0.1727 -0.0994,-0.59009 -0.22095,-0.92753 -0.12156,-0.33743 -0.22489,-0.71944 -0.22963,-0.8489 -0.005,-0.12945 -0.11519,-0.30833 -0.24541,-0.3975 -0.49963,-0.34213 -1.08741,-4.32607 -1.18317,-8.01953 -0.37102,-14.31066 -9.61108,-24.41768 -22.22449,-24.3091 l -2.38526,0.0205 2.01878,0.33121 c 5.94009,0.97453 12.17559,4.7532 13.89439,8.41989 1.00718,2.14862 0.16215,1.96343 -2.74706,-0.60204 -5.94791,-5.24516 -14.95621,-6.75534 -23.33486,-3.91194 -2.8584,0.97005 -8.99347,4.24212 -9.79612,5.22466 -0.0713,0.0872 -0.52277,0.51633 -1.00341,0.95359 l -0.87387,0.79502 0.62102,-0.79502 c 2.25749,-2.88995 4.41076,-4.80447 7.17826,-6.38229 4.36234,-2.48707 2.09253,-3.02141 -3.28166,-0.77254 -1.00724,0.42148 0.002,-0.37489 1.98983,-1.57079 16.96932,-10.20682 39.59255,-1.09089 44.12926,17.78168 0.30929,1.28661 0.60424,2.12519 0.65544,1.86352 0.0512,-0.26167 -0.0292,-0.84593 -0.17856,-1.29834 -0.14942,-0.45242 -0.26041,-1.01346 -0.24662,-1.24679 0.0138,-0.23332 0.28291,0.40587 0.59807,1.42042 1.6509,5.31443 2.11593,-1.2591 0.50219,-7.09866 -0.3555,-1.28642 -0.9236,-3.00063 -1.26247,-3.80934 -1.34479,-3.20952 -0.1969,-2.159 1.58195,1.44774 4.50461,9.13341 4.27862,22.33032 -0.52804,30.83793 l -0.59612,1.05511 z m -14.09789,-25.91912 c -3.0676,-6.29332 -11.65612,-9.22461 -20.6031,-7.03193 -7.66653,1.87888 -8.48188,0.17707 -0.92138,-1.9231 10.00552,-2.77936 23.55712,2.67765 22.33028,8.99202 l -0.22451,1.15555 z"
       id="path262160" /></g><path
     style="fill:#1b3a59;fill-opacity:1;stroke-width:7.17445"
     d="m 187.94807,227.13958 c 25.71487,-68.58663 56.8265,-23.73139 -21.84792,-6.41976 -13.40823,2.2116 -40.38866,0.50963 -51.93646,-3.27618 -3.61982,-11.17096 -24.318777,0.0698 -34.855022,-5.11497 -10.100385,-4.9796 -17.445532,-12.38623 -19.694652,-19.85941 -1.498496,-4.97912 -1.723544,-3.47843 -6.652699,-16.47357 -14.561382,-31.77493 -0.776462,-63.26635 8.794718,-94.864241 l 3.192493,-4.266054 c 1.755842,-2.346372 5.655935,-6.845928 8.666803,-9.999026 4.768784,-4.99403 6.580847,-6.262773 14.059292,-9.843916 34.708487,-16.620504 74.838327,-13.108024 101.864927,8.916014 8.41692,6.859006 13.07581,10.147396 14.37637,10.147396 3.19417,0 -1.28756,-9.408894 -7.62997,-16.01841 -10.57926,-11.024739 -26.9252,-19.462108 -46.30273,-23.900338 l -5.03614,-1.153428 8.99297,0.38837 c 32.9902,1.425448 60.41901,20.938076 74.07031,52.692908 5.8079,13.510065 8.24103,25.432325 9.48988,46.499905 0.86973,14.67208 2.61189,26.1936 4.36542,28.86981 0.63595,0.97057 1.82722,4.45717 2.6473,7.74807 0.82004,3.29086 2.1915,8.01714 3.04775,10.50283 l 1.55687,4.51945 -1.86513,3.68063 c -3.40068,6.71092 -11.20031,17.67002 -16.50005,23.18377 -5.22466,5.43575 -5.23096,5.43938 -14.91179,8.56345 -5.3267,1.71896 -12.29281,3.83566 -15.48027,4.70379 -6.22873,1.69643 -12.41227,2.08141 -12.41227,0.77275 z M 201.79511,92.743883 c 0.49073,-22.604276 -45.83693,-41.386217 -84.08485,-34.089317 -11.78401,2.248163 -26.611278,8.301041 -26.611278,10.863449 0,2.817161 7.31596,2.434054 25.149588,-1.316991 24.9042,-5.238217 47.06748,-2.466392 63.09159,7.890501 8.69659,5.620885 14.5058,12.082071 19.49987,21.688538 l 1.81258,3.486557 0.5292,-2.324397 c 0.29108,-1.27839 0.56705,-4.06764 0.6133,-6.19834 z"
     id="path2" /><text
     xml:space="preserve"
     style="font-style:normal;font-variant:normal;font-weight:normal;font-stretch:normal;font-size:76.4288px;font-family:'Liberation Serif';-inkscape-font-specification:'Liberation Serif';letter-spacing:-6.97739px;word-spacing:-3.68499px;fill:#f9f9f9;fill-opacity:1;stroke-width:15.1655"
     x="88.916458"
     y="145.24794"
     id="text5"
     transform="scale(0.85122111,1.1747829)"><tspan
       id="tspan5"
       style="font-style:normal;font-variant:normal;font-weight:normal;font-stretch:normal;font-family:'Liberation Serif';-inkscape-font-specification:'Liberation Serif';letter-spacing:-6.97739px;fill:#f9f9f9;stroke-width:15.1655"
       x="88.916458"
       y="145.24794">FLHA</tspan></text></svg>
